<svg width="51" height="32" viewBox="0 0 51 32" fill="none" xmlns="http://www.w3.org/2000/svg">
<path d="M18.5638 16.9108H15.9442C14.8284 16.9108 13.9229 17.8163 13.9229 18.9321C13.9229 20.0478 14.8284 20.9534 15.9442 20.9534H19.1256C19.7946 20.9534 20.3777 21.3943 20.6178 22.0188C21.2487 23.6599 22.15 25.1675 23.2666 26.4863C23.8582 27.1843 23.3704 28.2543 22.4554 28.2543H19.7455C18.778 28.2543 17.9439 28.9981 17.8981 29.9656C17.8496 30.9978 18.6729 31.8508 19.6943 31.8508H32.989C33.6951 31.9492 34.4147 32.0004 35.1477 32.0004C43.8096 32.0004 50.8208 24.9218 50.7089 16.2316C50.5998 7.82984 43.7409 0.977686 35.3391 0.875274C34.1613 0.860451 33.0132 0.977686 31.9083 1.21215C29.2671 1.77272 26.5707 2.03145 23.8716 2.03145H10.9866C9.89784 2.03145 8.95996 2.86826 8.90876 3.95706C8.85351 5.11862 9.77926 6.07806 10.9287 6.07806H19.2092C20.9192 6.07806 22.035 7.8824 21.2615 9.40644C21.2521 9.42396 21.244 9.44148 21.2346 9.459C20.8465 10.2338 20.0514 10.7216 19.1836 10.7216H8.58805C7.49925 10.7216 6.56137 11.5584 6.51016 12.6472C6.45491 13.8088 7.38067 14.7682 8.5301 14.7682H18.5624C19.1701 14.7682 19.6553 15.2722 19.6323 15.8799C19.6108 16.4553 19.1378 16.9095 18.5624 16.9095L18.5638 16.9108ZM30.7831 7.10622C30.9232 4.92997 32.6912 3.16472 34.8674 3.02862C37.5072 2.86422 39.6808 5.03912 39.5137 7.67892C39.3763 9.85652 37.6096 11.6231 35.4307 11.7606C32.7869 11.9277 30.6106 9.74737 30.7817 7.10487L30.7831 7.10622ZM22.0309 14.0756C21.8679 11.4358 24.0428 9.26361 26.6826 9.4307C28.8615 9.56815 30.6281 11.3361 30.7642 13.515C30.93 16.1589 28.7483 18.3338 26.1058 18.1626C23.9296 18.0212 22.1657 16.2532 22.0296 14.077L22.0309 14.0756ZM33.8797 24.1254C33.7423 26.303 31.9757 28.0696 29.7981 28.2071C27.1542 28.3742 24.9753 26.1939 25.1464 23.5514C25.2879 21.3738 27.0558 19.6099 29.2334 19.4738C31.8732 19.3094 34.0455 21.4856 33.8797 24.1254ZM35.3997 17.8702C34.4066 18.036 33.5576 17.1911 33.718 16.198C33.815 15.597 34.2974 15.1105 34.8984 15.0094C35.8916 14.8437 36.7432 15.6872 36.5828 16.6817C36.4858 17.2841 36.0021 17.7705 35.3997 17.8716V17.8702ZM45.1531 24.1227C45.017 26.3003 43.2517 28.0683 41.0741 28.2071C38.4303 28.3769 36.2513 26.1966 36.4211 23.5541C36.5599 21.3778 38.3252 19.6112 40.5014 19.4738C43.1399 19.3067 45.3175 21.4829 45.1531 24.1227ZM43.9012 18.1721C41.4838 18.1721 39.5245 16.2128 39.5245 13.798C39.5245 11.3833 41.6549 9.25552 44.2139 9.43339C46.3726 9.58297 48.1203 11.3334 48.2672 13.4921C48.441 16.0484 46.4184 18.1734 43.9026 18.1734L43.9012 18.1721Z" fill="#9534D2"/>
<rect x="10.7734" y="28.3213" width="5.42906" height="3.61937" rx="1.80969" fill="#9534D2"/>
<rect x="0.0664062" y="2.08105" width="6.78633" height="3.92099" rx="1.96049" fill="#9534D2"/>
</svg>
