<svg width="24" height="24" viewBox="0 0 24 24" fill="none" xmlns="http://www.w3.org/2000/svg">
<path d="M12 17C12.5523 17 13 16.5523 13 16C13 15.4477 12.5523 15 12 15C11.4477 15 11 15.4477 11 16C11 16.5523 11.4477 17 12 17Z" fill="white"/>
<path d="M13 12C13 12.5523 12.5523 13 12 13C11.4477 13 11 12.5523 11 12C11 11.4477 11.4477 11 12 11C12.5523 11 13 11.4477 13 12Z" fill="white"/>
<path d="M12 9C12.5523 9 13 8.55228 13 8C13 7.44772 12.5523 7 12 7C11.4477 7 11 7.44772 11 8C11 8.55228 11.4477 9 12 9Z" fill="white"/>
<path fill-rule="evenodd" clip-rule="evenodd" d="M2 14V18C2 19.1046 2.89543 20 4 20H20C21.1046 20 22 19.1046 22 18V14C20.8954 14 20 13.1046 20 12C20 10.8954 20.8954 10 22 10V6C22 4.89542 21.1046 4 20 4H4C2.89543 4 2 4.89545 2 6V10C3.10457 10 4 10.8954 4 12C4 13.1046 3.10457 14 2 14ZM20.5 18C20.5 18.2761 20.2761 18.5 20 18.5H4C3.72385 18.5 3.5 18.2761 3.5 18V15.1632C4.68246 14.6015 5.5 13.3962 5.5 12C5.5 10.6038 4.68248 9.39856 3.5 8.83682V6C3.5 5.72385 3.72385 5.5 4 5.5H20C20.2761 5.5 20.5 5.72385 20.5 6V8.83682C19.3175 9.39856 18.5 10.6038 18.5 12C18.5 13.3962 19.3175 14.6014 20.5 15.1632V18Z" fill="white"/>
</svg>
