<svg width="21" height="19" viewBox="0 0 21 19" fill="none" xmlns="http://www.w3.org/2000/svg">
<path d="M10.1055 0.347516C10.3352 -0.115839 10.9988 -0.115838 11.2285 0.347517L13.8336 5.60322C13.9248 5.78722 14.1011 5.91476 14.305 5.94426L20.1302 6.78705C20.6438 6.86136 20.8488 7.48975 20.4772 7.85042L16.2621 11.9414C16.1145 12.0846 16.0472 12.291 16.082 12.4932L17.0771 18.2698C17.1648 18.7791 16.6279 19.1675 16.1686 18.927L10.9584 16.1997C10.776 16.1042 10.558 16.1042 10.3756 16.1997L5.16541 18.927C4.70606 19.1675 4.1692 18.7791 4.25693 18.2698L5.25199 12.4932C5.28683 12.291 5.21949 12.0846 5.07192 11.9414L0.85676 7.85042C0.485142 7.48975 0.690206 6.86136 1.20377 6.78705L7.02897 5.94426C7.23291 5.91476 7.40921 5.78722 7.50041 5.60322L10.1055 0.347516Z" fill="#FDD442"/>
</svg>
